<svg width="481" height="320" viewBox="0 0 481 320" fill="none" xmlns="http://www.w3.org/2000/svg">
<path d="M239.661 16C161.721 16 81.771 61.11 18.831 151.33C17.0344 153.934 16.0499 157.011 16.0018 160.174C15.9538 163.337 16.8443 166.443 18.561 169.1C66.921 244.8 145.801 304 239.661 304C332.501 304 413.001 244.62 461.451 168.75C463.127 166.145 464.019 163.113 464.019 160.015C464.019 156.917 463.127 153.885 461.451 151.28C412.891 76.28 331.801 16 239.661 16Z" stroke="#425966" stroke-width="32" stroke-linecap="round" stroke-linejoin="round"/>
<path d="M240 240C284.183 240 320 204.183 320 160C320 115.817 284.183 80 240 80C195.817 80 160 115.817 160 160C160 204.183 195.817 240 240 240Z" stroke="#425966" stroke-width="32" stroke-miterlimit="10"/>
</svg>
