<svg width="481" height="384" viewBox="0 0 481 384" fill="none" xmlns="http://www.w3.org/2000/svg">
<path d="M416.02 383.71C413.919 383.714 411.837 383.301 409.896 382.496C407.955 381.691 406.192 380.51 404.71 379.02L52.7099 27.0203C49.836 23.9953 48.2575 19.9674 48.3109 15.7952C48.3643 11.623 50.0455 7.63671 52.9959 4.68629C55.9463 1.73586 59.9326 0.05473 64.1048 0.00131282C68.277 -0.0521043 72.3049 1.52643 75.3299 4.40035L427.33 356.4C429.566 358.638 431.089 361.488 431.706 364.591C432.322 367.694 432.005 370.91 430.795 373.832C429.585 376.755 427.535 379.253 424.905 381.012C422.275 382.77 419.183 383.709 416.02 383.71V383.71ZM239.68 319.71C198.19 319.71 158.18 307.43 120.76 283.21C86.6899 261.21 56.0199 229.7 32.0599 192.21V192.13C51.9999 163.56 73.8399 139.4 97.2999 119.92C97.5122 119.743 97.6853 119.523 97.8083 119.276C97.9314 119.028 98.0017 118.757 98.0149 118.481C98.028 118.205 97.9837 117.929 97.8848 117.67C97.7858 117.412 97.6343 117.177 97.4399 116.98L77.5199 97.0903C77.166 96.7334 76.6906 96.5229 76.1884 96.5007C75.6862 96.4784 75.1941 96.6461 74.8099 96.9703C49.8899 117.97 26.7599 143.73 5.72994 173.89C2.11179 179.083 0.119133 185.235 0.00517632 191.563C-0.108781 197.891 1.66111 204.11 5.08994 209.43C31.4999 250.76 65.4899 285.57 103.37 310.08C146.02 337.71 191.92 351.71 239.68 351.71C265.46 351.63 291.057 347.382 315.48 339.13C315.802 339.021 316.091 338.831 316.32 338.579C316.548 338.327 316.708 338.021 316.786 337.69C316.863 337.358 316.854 337.013 316.76 336.685C316.666 336.358 316.491 336.061 316.25 335.82L294.67 314.24C294.173 313.756 293.559 313.409 292.887 313.233C292.216 313.058 291.51 313.06 290.84 313.24C274.127 317.544 256.938 319.718 239.68 319.71V319.71ZM474.86 174.31C448.4 133.39 414.07 98.6304 375.59 73.7803C333.02 46.2603 286.02 31.7103 239.68 31.7103C214.174 31.7556 188.857 36.0928 164.79 44.5403C164.469 44.6519 164.182 44.8433 163.956 45.0964C163.73 45.3496 163.572 45.6562 163.497 45.9873C163.422 46.3184 163.432 46.6632 163.527 46.9891C163.622 47.3151 163.799 47.6114 164.04 47.8503L185.59 69.4003C186.092 69.8935 186.714 70.2456 187.396 70.4212C188.077 70.5968 188.792 70.5896 189.47 70.4003C205.84 65.9721 222.722 63.7227 239.68 63.7103C280.37 63.7103 320.26 76.1403 358.23 100.71C392.94 123.11 423.97 154.59 447.99 191.71C448.008 191.733 448.017 191.761 448.017 191.79C448.017 191.819 448.008 191.847 447.99 191.87C430.554 219.32 408.917 243.862 383.87 264.6C383.655 264.777 383.48 264.997 383.355 265.245C383.23 265.493 383.159 265.765 383.144 266.042C383.13 266.32 383.174 266.597 383.273 266.857C383.372 267.117 383.525 267.353 383.72 267.55L403.62 287.44C403.972 287.796 404.445 288.006 404.945 288.031C405.445 288.055 405.935 287.89 406.32 287.57C433.06 265.055 456.207 238.591 474.96 209.09C478.275 203.892 480.027 197.851 480.01 191.686C479.992 185.52 478.205 179.49 474.86 174.31V174.31Z" fill="#425966"/>
<path d="M240.02 95.711C232.829 95.7071 225.661 96.5121 218.65 98.1109C218.296 98.1845 217.969 98.3526 217.702 98.5976C217.436 98.8425 217.242 99.155 217.139 99.5018C217.036 99.8486 217.03 100.217 217.12 100.567C217.21 100.917 217.393 101.237 217.65 101.491L330.24 214.051C330.495 214.308 330.814 214.491 331.164 214.581C331.514 214.671 331.883 214.665 332.229 214.562C332.576 214.46 332.889 214.265 333.134 213.999C333.379 213.733 333.547 213.405 333.62 213.051C336.826 198.991 336.823 184.39 333.611 170.332C330.4 156.274 324.063 143.12 315.07 131.846C306.078 120.573 294.661 111.471 281.669 105.215C268.676 98.9591 254.441 95.7107 240.02 95.711V95.711ZM149.8 169.371C149.546 169.114 149.227 168.931 148.876 168.841C148.526 168.75 148.158 168.757 147.811 168.86C147.464 168.962 147.152 169.157 146.907 169.423C146.662 169.689 146.494 170.017 146.42 170.371C142.794 186.214 143.249 202.719 147.744 218.339C152.238 233.958 160.625 248.181 172.118 259.673C183.611 271.166 197.833 279.553 213.452 284.048C229.072 288.542 245.577 288.997 261.42 285.371C261.774 285.297 262.102 285.129 262.368 284.884C262.634 284.639 262.829 284.327 262.931 283.98C263.034 283.633 263.041 283.265 262.951 282.915C262.861 282.565 262.677 282.245 262.42 281.991L149.8 169.371Z" fill="#425966"/>
</svg>
