<svg width="32" height="32" viewBox="0 0 32 32" fill="none" xmlns="http://www.w3.org/2000/svg">
<rect width="31.88" height="31.88" rx="3" fill="#D84A4A"/>
<path d="M4.42676 12.9288V11.6248C4.46303 11.6248 4.46974 11.5913 4.47377 11.5604C4.51821 11.2189 4.59237 10.8819 4.69541 10.5532C5.0981 9.26716 5.9423 8.16465 7.07902 7.44032C8.21573 6.71598 9.57187 6.41638 10.908 6.59441C10.9962 6.6124 11.0876 6.60532 11.1718 6.57399C11.2561 6.54265 11.33 6.48832 11.3849 6.41715C12.3324 5.39102 13.602 4.7192 14.9835 4.51295C15.0655 4.49952 15.1635 4.51295 15.2226 4.42969H16.5726C16.5834 4.48072 16.6237 4.46997 16.6586 4.47535C16.9393 4.521 17.2201 4.5586 17.4968 4.63112C18.6882 4.93599 19.763 5.58582 20.5863 6.49907C20.6217 6.54545 20.6702 6.5802 20.7255 6.59886C20.7807 6.61752 20.8404 6.61925 20.8966 6.60381C21.5553 6.48789 22.2303 6.50249 22.8833 6.64678C24.0273 6.88815 25.0705 7.4722 25.8741 8.32115C26.6777 9.1701 27.2035 10.2437 27.3814 11.3988C27.5594 12.554 27.3811 13.736 26.8703 14.7873C26.3595 15.8386 25.5404 16.7095 24.5221 17.2837C24.453 17.3139 24.3952 17.3653 24.3573 17.4305C24.3194 17.4957 24.3032 17.5713 24.3112 17.6463C24.3184 20.1718 24.3184 22.6973 24.3112 25.2229C24.325 25.518 24.2773 25.8128 24.1712 26.0886C24.0651 26.3644 23.9029 26.6151 23.6948 26.8249C23.4866 27.0347 23.2372 27.199 22.9623 27.3075C22.6873 27.4159 22.3929 27.466 22.0975 27.4547C17.9889 27.4547 13.8807 27.4547 9.77298 27.4547C9.47849 27.4614 9.18575 27.4077 8.91281 27.2969C8.63988 27.1861 8.39252 27.0206 8.186 26.8107C7.97948 26.6007 7.81816 26.3506 7.71199 26.0759C7.60582 25.8012 7.55704 25.5077 7.56867 25.2135C7.56867 22.6879 7.57181 20.1624 7.57808 17.6369C7.58561 17.5663 7.57072 17.4951 7.53553 17.4334C7.50033 17.3717 7.4466 17.3226 7.38196 17.2931C6.69047 16.9134 6.08573 16.3938 5.60629 15.7675C5.12684 15.1411 4.78323 14.4218 4.59735 13.6553C4.56523 13.408 4.50807 13.1646 4.42676 12.9288M15.9305 22.2242C18.2987 22.2242 20.6683 22.2242 23.0365 22.2242C23.2406 22.2242 23.2796 22.1678 23.2783 21.9758C23.2702 20.3724 23.2783 18.769 23.2715 17.1656C23.2597 17.0722 23.2716 16.9774 23.3061 16.8898C23.3406 16.8023 23.3966 16.7249 23.469 16.6647C23.5809 16.5913 23.6986 16.5271 23.8209 16.4726C24.7748 15.9939 25.5373 15.2048 25.9831 14.2353C26.4289 13.2658 26.5314 12.1735 26.2738 11.138C26.0162 10.1025 25.4139 9.18549 24.5658 8.53765C23.7177 7.88981 22.6743 7.54975 21.6072 7.57337C21.4178 7.57337 21.391 7.615 21.4836 7.78152C21.7401 8.23852 21.9292 8.73017 22.0451 9.24123C22.1879 9.75422 22.2388 10.2884 22.1956 10.8191C22.1773 10.9346 22.1173 11.0393 22.0269 11.1136C21.9366 11.1878 21.8221 11.2264 21.7053 11.222C21.5875 11.2258 21.4723 11.1873 21.3806 11.1133C21.2889 11.0394 21.2268 10.935 21.2056 10.8191C21.1811 10.6861 21.1672 10.5514 21.1639 10.4163C21.1354 9.78707 20.9887 9.16888 20.7314 8.59396C20.2817 7.5721 19.5167 6.72089 18.5483 6.16484C17.58 5.60879 16.4591 5.37707 15.3496 5.50357C14.24 5.63006 13.2001 6.10814 12.3818 6.86788C11.5636 7.62762 11.01 8.62916 10.8019 9.72601C10.7401 10.0819 10.7509 10.4431 10.6837 10.8003C10.6741 10.8653 10.6516 10.9276 10.6175 10.9838C10.5835 11.0399 10.5385 11.0887 10.4853 11.1272C10.4322 11.1658 10.3718 11.1933 10.3078 11.2082C10.2439 11.223 10.1776 11.225 10.1128 11.2139C9.81731 11.1763 9.65343 10.9319 9.66418 10.568C9.68453 9.58401 9.94065 8.61925 10.411 7.75466C10.4916 7.60694 10.4675 7.56531 10.3009 7.568C10.0464 7.56936 9.79218 7.58415 9.53925 7.61232C8.39945 7.76789 7.35664 8.33784 6.60828 9.21146C5.85992 10.0851 5.45797 11.2027 5.47854 12.3527C5.48034 13.236 5.73689 14.1 6.21744 14.8412C6.69799 15.5824 7.38215 16.1694 8.18792 16.5317C8.32694 16.5854 8.44492 16.6824 8.52431 16.8085C8.60369 16.9346 8.64024 17.0829 8.62852 17.2314C8.61374 18.82 8.62852 20.4086 8.6124 21.9973C8.6124 22.1853 8.6621 22.2309 8.84747 22.2309C11.208 22.2238 13.5691 22.2238 15.9305 22.2309M15.9426 23.277C13.5812 23.277 11.221 23.277 8.8609 23.277C8.64732 23.277 8.60702 23.3401 8.61105 23.5362C8.62449 24.0975 8.61105 24.6602 8.61105 25.2215C8.59829 25.3808 8.62028 25.541 8.67551 25.691C8.73074 25.841 8.81789 25.9772 8.93093 26.0902C9.04398 26.2032 9.18022 26.2903 9.33024 26.3455C9.48027 26.4007 9.64049 26.4227 9.79985 26.41C13.8995 26.41 17.9987 26.41 22.0975 26.41C22.2557 26.4215 22.4146 26.3987 22.5632 26.3431C22.7118 26.2876 22.8467 26.2006 22.9585 26.0881C23.0704 25.9757 23.1566 25.8404 23.2114 25.6915C23.2661 25.5426 23.288 25.3837 23.2756 25.2255C23.2756 24.6481 23.2662 24.072 23.2756 23.4946C23.2756 23.3052 23.2299 23.2636 23.0445 23.2636C20.6763 23.2703 18.3081 23.2636 15.94 23.2636" fill="white"/>
<path d="M22.2224 15.455C22.1736 16.0304 22.0018 16.5886 21.7187 17.092C21.4006 17.7115 21.0193 18.2965 20.5809 18.8377C20.5433 18.9002 20.4931 18.954 20.4334 18.9959C20.3738 19.0378 20.306 19.0668 20.2345 19.081C20.163 19.0952 20.0893 19.0944 20.0182 19.0785C19.947 19.0626 19.88 19.0321 19.8213 18.9888C19.7626 18.9456 19.7136 18.8906 19.6775 18.8273C19.6413 18.764 19.6187 18.6939 19.6112 18.6214C19.6037 18.5489 19.6114 18.4756 19.6338 18.4063C19.6562 18.3369 19.6929 18.273 19.7414 18.2187C20.0949 17.7558 20.418 17.2704 20.7086 16.7657C20.9718 16.3181 21.1422 15.8221 21.2096 15.3073C21.223 15.2015 21.2725 15.1035 21.3499 15.0301C21.4273 14.9567 21.5277 14.9123 21.6341 14.9044C21.7388 14.8881 21.8459 14.9053 21.9403 14.9535C22.0346 15.0018 22.1113 15.0786 22.1593 15.173C22.2007 15.26 22.2236 15.3547 22.2265 15.451" fill="white"/>
<path d="M9.66956 15.4581C9.66309 15.322 9.70933 15.1888 9.79865 15.086C9.88797 14.9832 10.0135 14.9188 10.1491 14.9061C10.2144 14.8979 10.2806 14.9031 10.3439 14.9212C10.4071 14.9394 10.466 14.9701 10.517 15.0117C10.5679 15.0532 10.61 15.1047 10.6405 15.163C10.671 15.2212 10.6894 15.2851 10.6945 15.3506C10.8626 16.2179 11.2367 17.0322 11.7852 17.7248C11.9088 17.9115 12.0539 18.082 12.1788 18.2714C12.2584 18.383 12.2904 18.5217 12.2677 18.657C12.2451 18.7922 12.1696 18.9129 12.0579 18.9925C11.9462 19.0721 11.8075 19.1041 11.6722 19.0814C11.5369 19.0588 11.4162 18.9833 11.3366 18.8717C10.8608 18.2932 10.4525 17.6625 10.1196 16.9916C9.87607 16.5447 9.72316 16.0541 9.66956 15.548C9.66956 15.5185 9.66284 15.4876 9.66016 15.4581" fill="white"/>
<path d="M16.469 16.9992C16.469 17.4934 16.477 17.9876 16.469 18.4764C16.4596 18.9101 16.156 19.1478 15.7866 19.0431C15.6734 19.009 15.5755 18.9369 15.5092 18.8391C15.4429 18.7413 15.4123 18.6236 15.4226 18.5059C15.4145 17.488 15.4132 16.4715 15.4226 15.4535C15.4169 15.3804 15.4267 15.3068 15.4513 15.2377C15.4759 15.1685 15.5149 15.1054 15.5656 15.0523C15.6163 14.9992 15.6776 14.9574 15.7455 14.9296C15.8135 14.9018 15.8865 14.8886 15.9599 14.8909C16.033 14.8943 16.1047 14.9127 16.1706 14.9448C16.2364 14.9769 16.2949 15.0222 16.3426 15.0778C16.3903 15.1334 16.4261 15.1981 16.4478 15.2681C16.4696 15.338 16.4767 15.4116 16.469 15.4844C16.4757 15.9853 16.469 16.4876 16.469 16.9885" fill="white"/>
</svg>
